<?xml version="1.0" encoding="UTF-8"?> <svg xmlns="http://www.w3.org/2000/svg" width="24" height="24" viewBox="0 0 24 24" fill="none"><path fill-rule="evenodd" clip-rule="evenodd" d="M12 24C18.6274 24 24 18.6274 24 12C24 5.37258 18.6274 0 12 0C5.37259 0 0 5.37258 0 12C0 18.6274 5.37259 24 12 24ZM10.0892 4.39198C9.92667 4.14424 9.62555 4.02841 9.34945 4.12594C9.03496 4.23704 8.72734 4.36771 8.42848 4.51715C8.16613 4.64833 8.0345 4.94798 8.09225 5.24023L8.29801 6.28149C8.35097 6.5495 8.24161 6.82151 8.03398 6.99431C7.70582 7.2674 7.40287 7.57616 7.13145 7.91791C6.96274 8.13032 6.69656 8.2429 6.43371 8.1898L5.41298 7.9836C5.12624 7.92567 4.83293 8.06121 4.70538 8.32959C4.63334 8.48122 4.56533 8.63603 4.50155 8.79391C4.43778 8.9518 4.37915 9.11054 4.32557 9.26995C4.23075 9.55208 4.34528 9.85915 4.58876 10.0242L5.45545 10.6118C5.67863 10.7631 5.78977 11.0344 5.76281 11.3064C5.71943 11.744 5.7212 12.1809 5.76548 12.6107C5.79349 12.8826 5.68326 13.1542 5.46062 13.3063L4.59559 13.8973C4.35281 14.0631 4.23929 14.3704 4.33487 14.6521C4.44376 14.973 4.57182 15.2869 4.71826 15.5919C4.84682 15.8596 5.14048 15.9939 5.42688 15.935L6.44734 15.725C6.70998 15.671 6.97656 15.7826 7.1459 15.9944C7.41352 16.3293 7.7161 16.6384 8.05101 16.9154C8.25917 17.0875 8.3695 17.3591 8.31747 17.6273L8.11538 18.6689C8.05861 18.9615 8.19145 19.2608 8.45445 19.3909C8.60305 19.4645 8.75476 19.5339 8.90948 19.5989C9.06422 19.664 9.21979 19.7238 9.376 19.7785C9.83302 19.9384 10.4727 19.3659 10.9456 18.9426C11.1788 18.7339 11.3226 18.4385 11.3241 18.1222C11.3241 18.1205 11.3241 18.1188 11.3241 18.1171L11.3241 16.3754C11.3241 16.3569 11.3248 16.3386 11.3262 16.3205C9.92945 15.9798 8.89101 14.6976 8.89101 13.1679V11.3184C8.89101 11.1778 9.00269 11.0638 9.14047 11.0638H10.0056V9.24411C10.0056 8.99286 10.2052 8.78918 10.4514 8.78918C10.6976 8.78918 10.8973 8.99286 10.8973 9.24411V11.0638H13.2379V9.24411C13.2379 8.99286 13.4375 8.78918 13.6837 8.78918C13.9299 8.78918 14.1295 8.99286 14.1295 9.24411V11.0638H14.9947C15.1324 11.0638 15.2441 11.1778 15.2441 11.3184V13.1679C15.2441 14.7459 14.139 16.0606 12.6754 16.35C12.6757 16.3584 12.6758 16.3669 12.6758 16.3754L12.6759 18.1096C12.6759 18.4321 12.824 18.7328 13.0642 18.9423C13.5455 19.3621 14.1962 19.9295 14.6505 19.769C14.965 19.6579 15.2726 19.5272 15.5715 19.3778C15.8338 19.2466 15.9655 18.947 15.9077 18.6547L15.702 17.6134C15.649 17.3454 15.7584 17.0734 15.966 16.9006C16.2941 16.6275 16.5971 16.3188 16.8685 15.977C17.0372 15.7646 17.3034 15.6521 17.5662 15.7051L18.587 15.9114C18.8737 15.9693 19.167 15.8337 19.2946 15.5654C19.3666 15.4137 19.4346 15.2589 19.4984 15.101C19.5622 14.9432 19.6208 14.7844 19.6744 14.625C19.7692 14.3429 19.6547 14.0358 19.4112 13.8708L18.5445 13.2832C18.3213 13.1319 18.2102 12.8606 18.2371 12.5886C18.2805 12.1509 18.2788 11.714 18.2345 11.2843C18.2065 11.0124 18.3167 10.7407 18.5393 10.5886L19.4044 9.9977C19.6472 9.83184 19.7607 9.52458 19.6651 9.24286C19.5562 8.92194 19.4282 8.60805 19.2817 8.30308C19.1531 8.03537 18.8595 7.90107 18.5731 7.95999L17.5526 8.16995C17.29 8.22399 17.0234 8.1124 16.8541 7.90053C16.5865 7.56568 16.2839 7.25656 15.949 6.97959C15.7408 6.80744 15.6305 6.53582 15.6825 6.26762L15.8846 5.22604C15.9414 4.93345 15.8085 4.63415 15.5455 4.50401C15.3969 4.43049 15.2452 4.36109 15.0905 4.29602C14.9358 4.23095 14.7802 4.17111 14.624 4.11645C14.3475 4.01968 14.0466 4.13656 13.8848 4.385L13.309 5.26938C13.1607 5.49711 12.8948 5.61052 12.6283 5.58301C12.1993 5.53875 11.7712 5.54055 11.35 5.58573C11.0836 5.61431 10.8174 5.50184 10.6683 5.27465L10.0892 4.39198Z" fill="#005AE0"></path></svg> 