<?xml version="1.0" encoding="UTF-8"?> <svg xmlns="http://www.w3.org/2000/svg" width="24" height="24" viewBox="0 0 24 24" fill="none"><g clip-path="url(#clip0_11_1473)"><path d="M21.048 4.1178C20.769 4.3968 20.49 4.6758 20.211 4.9542C19.4801 5.685 18.7482 6.4158 18.018 7.1478C17.8476 7.3182 17.646 7.419 17.4042 7.416C17.0796 7.4118 16.8306 7.2624 16.68 6.9762C16.5264 6.6846 16.5534 6.3942 16.7376 6.1212C16.7718 6.0708 16.8144 6.0246 16.8576 5.9814C17.8662 4.9722 18.8754 3.963 19.884 2.9538C17.7756 1.1142 15.018 0 12 0C5.3724 0 0 5.3724 0 12C0 15.018 1.1148 17.7756 2.9538 19.8846C3.9618 18.8766 4.9698 17.8686 5.9772 16.86C6.1434 16.6932 6.3378 16.5834 6.5748 16.5822C6.894 16.5804 7.1442 16.7172 7.3092 16.995C7.3806 17.115 7.4172 17.247 7.4166 17.3196C7.4208 17.6406 7.3188 17.847 7.1424 18.0228C6.2454 18.9186 5.349 19.815 4.4526 20.7114C4.3404 20.8236 4.2288 20.9351 4.1166 21.0474C6.225 22.8859 8.982 23.9994 11.9988 23.9994C18.6264 23.9994 23.9989 18.627 23.9989 11.9994C23.9989 8.982 22.8851 6.2256 21.0469 4.1172L21.048 4.1178ZM5.6496 15.4464C5.349 15.7464 5.1408 16.1004 5.0592 16.5192C5.0442 16.5948 5.034 16.6698 5.0268 16.7442L3.5904 18.1806C3.5268 18 3.4758 17.8134 3.4398 17.6196C3.2796 16.761 3.4086 15.9426 3.8196 15.1704C3.9786 14.8716 4.1754 14.5998 4.4148 14.3598C4.8684 13.9056 5.3214 13.4514 5.7756 12.9978C5.8746 13.6218 6.0648 14.2152 6.3324 14.7642C6.1044 14.9916 5.877 15.219 5.6496 15.4464ZM14.3352 4.4394C14.8428 3.9342 15.4518 3.6102 16.1502 3.4596C16.8378 3.3114 17.5164 3.3528 18.177 3.594L16.7442 5.0268C16.5348 5.0466 16.3272 5.0976 16.122 5.184C15.8688 5.2908 15.6498 5.4468 15.456 5.64C15.225 5.8704 14.9946 6.1014 14.7636 6.3318C14.2152 6.0642 13.6218 5.874 12.9984 5.775C13.4436 5.3292 13.8882 4.8834 14.3346 4.4388L14.3352 4.4394ZM9.6054 19.617C9.0756 20.1319 8.4336 20.4444 7.704 20.5699C7.0596 20.6809 6.4302 20.6261 5.8206 20.4071L7.2558 18.972C7.2864 18.969 7.317 18.9684 7.3476 18.9641C7.7226 18.9144 8.0562 18.7661 8.3526 18.5334C8.4234 18.4776 8.4894 18.4158 8.553 18.3522C8.781 18.1242 9.009 17.8962 9.237 17.6676C9.7872 17.9358 10.3818 18.1266 11.007 18.225C10.5426 18.6918 10.0776 19.158 9.6054 19.617ZM17.3322 13.0038C17.3124 13.1142 17.289 13.2252 17.262 13.3356C17.235 13.446 17.205 13.5552 17.1726 13.6626C17.1462 13.7496 17.0928 13.8204 17.025 13.872C16.9572 13.9044 16.881 13.9212 16.8024 13.9176L16.0938 13.8852C15.9558 13.8792 15.8262 13.9344 15.7302 14.028C15.6822 14.067 15.6402 14.115 15.6078 14.1708C15.5394 14.289 15.4644 14.4024 15.3858 14.5122C15.3042 14.6184 15.219 14.721 15.1278 14.8188C15.0852 14.8644 15.0522 14.9172 15.0288 14.973C14.9646 15.093 14.9484 15.2352 14.9952 15.3666L15.2328 16.035C15.2598 16.1106 15.2652 16.1898 15.2532 16.2654C15.2232 16.3434 15.1716 16.4136 15.0978 16.4634C14.9106 16.59 14.715 16.7052 14.5134 16.8084C14.3364 16.899 14.1222 16.854 13.989 16.7094L13.5138 16.1946C13.3914 16.062 13.2012 16.0158 13.0242 16.0608C12.7446 16.1316 12.4554 16.1754 12.162 16.1892C11.9796 16.1976 11.811 16.2978 11.7324 16.4598L11.4282 17.0898C11.343 17.2668 11.151 17.3724 10.9548 17.337C10.8444 17.3172 10.7334 17.2938 10.623 17.2668C10.5126 17.2398 10.4034 17.2098 10.296 17.1774C10.26 17.1666 10.2276 17.1498 10.197 17.1306C10.1184 17.0442 10.0752 16.9254 10.0806 16.8018L10.113 16.0932C10.1214 15.9108 10.0218 15.7422 9.8676 15.6486C9.6192 15.498 9.3888 15.3228 9.1794 15.1278C9.0948 15.0492 8.9886 15.0012 8.8788 14.9928C8.7858 14.9676 8.6862 14.9682 8.5926 15.0012L7.9242 15.2388C7.8726 15.2574 7.8186 15.2652 7.7658 15.2652C7.6746 15.2388 7.5924 15.1824 7.5354 15.0978C7.4088 14.9106 7.2936 14.715 7.1904 14.5134C7.0998 14.3364 7.1448 14.1222 7.2894 13.989L7.8042 13.5138C7.9368 13.3914 7.983 13.2012 7.938 13.0242C7.8672 12.7446 7.8234 12.4554 7.8096 12.162C7.8012 11.9796 7.701 11.811 7.539 11.7324L6.909 11.4282C6.732 11.343 6.6264 11.151 6.6618 10.9548C6.6816 10.8444 6.705 10.7334 6.732 10.623C6.759 10.5126 6.789 10.4034 6.8214 10.296C6.8382 10.2408 6.867 10.1922 6.9024 10.1502C6.9774 10.1058 7.0656 10.0824 7.158 10.0866L7.8666 10.119C8.0328 10.1268 8.1876 10.044 8.2842 9.9126C8.3238 9.8772 8.3586 9.8358 8.3862 9.7878C8.4498 9.6774 8.5206 9.5724 8.5932 9.4698C8.6694 9.372 8.748 9.276 8.8326 9.1854C8.8692 9.1458 8.8986 9.1014 8.9208 9.054C9.0198 8.9226 9.0546 8.7498 8.9982 8.592L8.7606 7.9236C8.7294 7.836 8.7264 7.7436 8.7474 7.6584C8.7768 7.6134 8.8146 7.5732 8.862 7.5408C9.0492 7.4142 9.2448 7.299 9.4464 7.1958C9.6234 7.1052 9.8376 7.1502 9.9708 7.2948L10.446 7.8096C10.5684 7.9422 10.7586 7.9884 10.9356 7.9434C11.2152 7.8726 11.5044 7.8288 11.7978 7.815C11.9802 7.8066 12.1488 7.7064 12.2274 7.5444L12.5316 6.9144C12.6168 6.7374 12.8088 6.6318 13.005 6.6672C13.1154 6.687 13.2264 6.7104 13.3368 6.7374C13.4472 6.7644 13.5564 6.7944 13.6638 6.8268C13.7628 6.8574 13.8414 6.921 13.8936 7.0026C13.908 7.0518 13.9152 7.104 13.9128 7.1568L13.8804 7.8654C13.8756 7.9644 13.9038 8.0586 13.9542 8.1402C13.9944 8.2434 14.0712 8.3328 14.172 8.391C14.4246 8.5374 14.658 8.7078 14.8704 8.898C15.0048 9.0186 15.1956 9.0642 15.3672 9.003L16.0356 8.7654C16.1538 8.7234 16.281 8.7312 16.3872 8.7822C16.4136 8.805 16.4376 8.8308 16.458 8.8608C16.5846 9.048 16.6998 9.2436 16.803 9.4452C16.8936 9.6222 16.8486 9.8364 16.704 9.9696L16.1892 10.4448C16.0566 10.5672 16.0104 10.7574 16.0554 10.9344C16.1262 11.214 16.17 11.5032 16.1838 11.7966C16.1922 11.979 16.2924 12.1476 16.4544 12.2262L17.0844 12.5304C17.2614 12.6156 17.367 12.8076 17.3316 13.0038H17.3322ZM20.5969 7.521C20.5099 8.22 20.247 8.8452 19.8054 9.3936C19.7256 9.4926 19.6404 9.5874 19.551 9.6774C19.1094 10.1202 18.6678 10.5636 18.225 11.0052C18.1266 10.3806 17.9364 9.786 17.6682 9.237C17.901 9.0048 18.1338 8.772 18.3666 8.5392C18.6624 8.2428 18.8621 7.8906 18.9414 7.4784C18.9559 7.4028 18.966 7.3284 18.9731 7.254L20.4071 5.82C20.6081 6.366 20.6694 6.9354 20.5969 7.5204V7.521Z" fill="#005AE0"></path><path d="M14.1691 9.87414C13.9789 9.87414 13.8145 9.94194 13.6807 10.0763L11.2885 12.4685L10.3309 11.5115C10.1977 11.3891 10.0393 11.3273 9.86049 11.3273C9.68169 11.3273 9.51849 11.3939 9.37209 11.5295C9.22929 11.6717 9.15729 11.8361 9.15729 12.0179C9.15729 12.1997 9.23289 12.3623 9.37689 12.4865L10.8127 13.9343C10.9471 14.0687 11.1073 14.1365 11.2891 14.1365C11.4709 14.1365 11.6311 14.0687 11.7661 13.9337L14.6527 11.0219C14.7901 10.8959 14.8603 10.7315 14.8543 10.5467C14.8489 10.3673 14.7787 10.2089 14.6515 10.0817C14.5267 9.94554 14.3605 9.87354 14.1697 9.87354L14.1691 9.87414Z" fill="#005AE0"></path></g><defs><clipPath id="clip0_11_1473"><rect width="24" height="24" fill="white"></rect></clipPath></defs></svg> 