<?xml version="1.0" encoding="UTF-8"?> <svg xmlns="http://www.w3.org/2000/svg" width="120px" height="65px" viewBox="0 0 120 65"><style>.st3{fill:#999999}.st4{fill:#FDBB30}.st5{fill:#0174C3}.st6{opacity:0.4}.st7{fill:#1D1D1B}.st8{fill:#FCC200}</style><g id="Layer_2"><path class="st5" d="M10.5 64.6v-6.1c0-.2 0-.8-.1-1.6h1v1c.1-.3.3-.6.7-.8.3-.2.7-.3 1.2-.3.7 0 1.3.3 1.8.8.4.5.7 1.2.7 2s-.2 1.5-.7 2.1c-.4.5-1 .8-1.8.8-.4 0-.8-.1-1.1-.3-.3-.2-.6-.4-.7-.7v3.1h-1zm2.6-2.9c.5 0 .9-.2 1.2-.6.3-.4.4-.9.4-1.5s-.1-1.1-.4-1.5c-.3-.4-.7-.6-1.2-.6s-.9.2-1.2.6c-.3.4-.4.9-.4 1.5s.1 1.1.4 1.4c.2.5.7.7 1.2.7zM19.6 62.5c-.9 0-1.6-.3-2.1-.8s-.7-1.2-.7-2c0-.9.2-1.5.7-2.1s1.2-.8 2.1-.8c.9 0 1.6.3 2 .8.5.5.7 1.2.7 2.1 0 .8-.2 1.5-.7 2-.5.5-1.2.8-2 .8zm0-.8c.6 0 1-.2 1.3-.6.3-.4.5-.9.5-1.5s-.2-1.1-.5-1.5c-.3-.4-.7-.6-1.3-.6-.6 0-1 .2-1.3.6-.3.4-.5.9-.5 1.5s.2 1.1.5 1.5c.3.4.7.6 1.3.6zM24.9 62.4L23.1 57h1c.1.2.2.8.6 1.9.3 1.1.6 1.9.7 2.4.2-.6.5-1.4.8-2.4.4-1 .6-1.7.6-1.9h.9c.1.2.3.8.6 1.9.3 1.1.6 1.9.8 2.4.2-.6.4-1.4.7-2.4.3-1 .5-1.7.5-1.9h.9l-1.8 5.4h-.9c0-.1-.2-.7-.6-1.8-.4-1.1-.6-1.9-.8-2.4-.2.6-.5 1.4-.8 2.4-.4 1.1-.6 1.7-.6 1.8h-.8zM34.7 62.5c-.9 0-1.6-.3-2.1-.8s-.8-1.2-.8-2 .2-1.5.7-2.1 1.1-.8 1.9-.8c.5 0 .9.1 1.3.4.4.2.6.6.8 1 .2.4.3.9.3 1.4v.3h-4c0 .6.2 1.1.5 1.4.3.3.8.5 1.3.5.6 0 1.2-.2 1.7-.6l.3.7c-.4.4-1.1.6-1.9.6zm-1.8-3.4H36c0-.5-.2-.9-.4-1.1-.3-.3-.6-.4-1-.4s-.8.1-1.1.4c-.3.3-.5.7-.6 1.1zM38.2 62.4v-4.1-.5-.8h1v.8c.3-.6.8-1 1.5-1 .2 0 .4 0 .6.1v.9c-.2-.1-.4-.1-.6-.1-.4 0-.8.1-1 .4-.3.3-.4.7-.4 1.3v3h-1.1zM44.6 62.5c-.9 0-1.6-.3-2.1-.8s-.8-1.2-.8-2 .2-1.5.7-2.1 1.1-.8 1.9-.8c.5 0 .9.1 1.3.4.4.2.6.6.8 1 .2.4.3.9.3 1.4v.3h-4c0 .6.2 1.1.5 1.4.3.3.8.5 1.3.5.6 0 1.2-.2 1.7-.6l.3.7c-.4.4-1.1.6-1.9.6zm-1.8-3.4h3.1c0-.5-.2-.9-.4-1.1-.3-.3-.6-.4-1-.4s-.8.1-1.1.4c-.4.3-.6.7-.6 1.1zM50.4 62.5c-.7 0-1.3-.3-1.8-.8s-.7-1.2-.7-2c0-.6.1-1.1.3-1.5.2-.4.5-.8.9-1 .4-.2.8-.4 1.4-.4.4 0 .8.1 1.1.3.3.2.5.4.6.7v-3.3h1v7.9h-1v-.9c-.1.3-.3.5-.6.7-.3.2-.7.3-1.2.3zm.1-.8c.5 0 .9-.2 1.2-.6.3-.4.4-.9.4-1.5s-.1-1.1-.4-1.5c-.3-.4-.7-.6-1.2-.6s-.9.2-1.2.6c-.3.4-.4.9-.4 1.5s.1 1.1.4 1.5c.3.4.7.6 1.2.6zM61 62.5c-.4 0-.8-.1-1.1-.3-.3-.2-.6-.4-.7-.7v.9h-1V54.6h1V58c.1-.3.4-.5.7-.7.3-.2.7-.3 1.2-.3.8 0 1.4.3 1.8.8.4.5.7 1.2.7 2 0 .9-.2 1.6-.7 2.1-.6.3-1.2.6-1.9.6zm-.2-.8c.5 0 .9-.2 1.2-.6.3-.4.4-.9.4-1.5s-.1-1.1-.4-1.4c-.3-.4-.7-.6-1.2-.6s-1 .2-1.3.6c-.3.4-.5.9-.5 1.5s.2 1.1.5 1.5c.4.3.8.5 1.3.5zM64.7 64.7l-.4-.7c.9-.3 1.4-.8 1.6-1.4l.1-.3-2.2-5.4h1l1.7 4.3 1.6-4.3h1l-2.2 5.7c-.2.5-.5.9-.8 1.3-.4.4-.9.6-1.4.8z"></path><g><path class="st5" d="M72.7 59.5c0-.9.2-1.7.7-2.2.5-.6 1.1-.8 1.9-.8.3 0 .5 0 .7.1.2.1.4.1.5.2l.3.3.2.2v-3h1.1v8.1H77v-.9s0 .1-.1.1c0 0-.1.1-.2.3-.1.1-.2.2-.4.3-.1.1-.3.2-.5.3-.2.1-.5.1-.7.1-.8 0-1.4-.3-1.9-.8-.3-.7-.5-1.4-.5-2.3zm1.1 0c0 .6.2 1.1.5 1.5.3.4.7.6 1.2.6s.9-.2 1.2-.5c.3-.3.5-.9.5-1.6 0-.6-.1-1-.4-1.4-.3-.4-.7-.6-1.2-.6s-.9.2-1.2.6c-.4.2-.6.8-.6 1.4zM79.1 55.4v-1.1h1.1v1.1h-1.1zm0 7v-5.8h1.1v5.8h-1.1zM81.9 63.4c.5.3 1 .4 1.6.4.5 0 1-.1 1.3-.4.3-.3.5-.7.5-1.2v-.8c-.4.6-.9.9-1.7.9-.8 0-1.4-.3-1.9-.8-.5-.6-.7-1.3-.7-2.1 0-.9.2-1.6.7-2.1.5-.5 1.1-.8 1.9-.8.3 0 .5 0 .7.1.2.1.4.1.5.2l.3.3.2.2.1.1v-.7h1.1v5.6c0 .5-.1.9-.2 1.2-.2.4-.4.6-.7.8-.3.2-.6.4-.9.5-.3.1-.7.1-1.1.1-.7 0-1.4-.2-2-.5l.3-1zm2-2c.5 0 .8-.2 1.1-.5.3-.3.4-.8.4-1.5 0-1.3-.5-1.9-1.6-1.9-.5 0-.9.2-1.2.5-.3.3-.4.8-.4 1.4 0 .6.2 1.1.5 1.5.2.3.6.5 1.2.5zM87.4 55.4v-1.1h1.1v1.1h-1.1zm0 7v-5.8h1.1v5.8h-1.1zM89.3 59.5c0-.9.3-1.6.9-2.2.6-.6 1.3-.9 2.2-.9.4 0 .8.1 1.2.2.4.1.6.3.8.4l.2.2-.5.8-.2-.2c-.1-.1-.3-.2-.5-.3-.3-.1-.6-.2-.9-.2-.6 0-1.1.2-1.4.6-.4.4-.6.9-.6 1.5s.2 1.1.6 1.5c.4.4.9.6 1.5.6.3 0 .6-.1.9-.2.3-.1.5-.3.7-.4l.2-.2.4.8-.1.1s-.1.1-.3.2c-.1.1-.3.2-.5.3-.2.1-.4.2-.6.2-.3.1-.5.1-.8.1-.9 0-1.7-.3-2.2-.9-.7-.4-1-1.1-1-2zM94.9 59.5c0-.9.3-1.6.8-2.2.5-.6 1.2-.8 2.1-.8.8 0 1.4.3 1.8.8.4.5.7 1.2.7 1.9v.5H96c0 .6.2 1.1.6 1.4.4.3.8.5 1.4.5.3 0 .6-.1.9-.2.3-.1.5-.2.6-.3l.2-.2.5.8c-.1.1-.2.1-.3.2-.1.1-.4.2-.8.4s-.8.2-1.2.2c-.9 0-1.6-.3-2.2-.9-.5-.5-.8-1.2-.8-2.1zm1.2-.7h3.1c0-.5-.2-.8-.4-1.1-.3-.3-.6-.4-1-.4s-.8.1-1.1.4c-.4.3-.6.7-.6 1.1zM101.1 62.4v-5.8h1.1V58c.1-.4.4-.8.7-1.1.3-.3.7-.4 1.1-.4h.3v1.1h-.3c-.4 0-.7.1-1 .4-.3.2-.5.6-.6 1-.1.3-.1.6-.1 1v2.4h-1.2zM105.7 60.3v-2.7h-.7v-.9h.8V55h1.1v1.7h1.4v.9h-1.4v2.6c0 .2 0 .4.1.6.1.2.1.3.2.4.1.1.2.2.3.2.1.1.2.1.3.1h.6v1h-.9c-.2 0-.4-.1-.6-.2-.2-.1-.4-.2-.6-.4-.2-.1-.3-.4-.4-.6-.1-.3-.2-.7-.2-1zM108.9 54.3c-.5 0-.8.4-.8.8 0 .5.4.8.8.8.5 0 .8-.4.8-.8.1-.4-.3-.8-.8-.8m0 1.5c-.4 0-.7-.3-.7-.7 0-.4.3-.7.7-.7.4 0 .7.3.7.7 0 .4-.3.7-.7.7"></path><path class="st5" d="M108.6 55.6v-.9h.5s.1 0 .1.1v.4l-.1.1.2.4h-.1l-.2-.4h-.2v.4h-.2zm.2-.5H109.1V55c0-.1 0-.1-.1-.1h-.2v.2z"></path></g><g><path class="st6" d="M99.1 48.1H22.7c-11 0-19.9-8.9-19.9-19.9 0-11 8.9-19.9 19.9-19.9h76.4c11 0 19.9 8.9 19.9 19.9 0 11-8.9 19.9-19.9 19.9M22.7 9.9c-10.1 0-18.3 8.2-18.3 18.3 0 10.1 8.2 18.3 18.3 18.3h76.4c10.1 0 18.3-8.2 18.3-18.3 0-10.1-8.2-18.3-18.3-18.3H22.7z"></path><path class="st7" d="M90 17.1c-3 0-5.4 2.4-5.4 5.4 0 3 2.4 5.4 5.4 5.4 3 0 5.4-2.4 5.4-5.4-.1-3-2.5-5.4-5.4-5.4m0 8.1c-1.5 0-2.8-1.2-2.8-2.8 0-1.5 1.2-2.8 2.8-2.8 1.5 0 2.8 1.2 2.8 2.8-.1 1.6-1.3 2.8-2.8 2.8M65.3 17.1c-3 0-5.4 2.4-5.4 5.4 0 3 2.4 5.4 5.4 5.4 3 0 5.4-2.4 5.4-5.4 0-3-2.4-5.4-5.4-5.4m0 8.1c-1.5 0-2.8-1.2-2.8-2.8 0-1.5 1.2-2.8 2.8-2.8 1.5 0 2.8 1.2 2.8 2.8 0 1.6-1.2 2.8-2.8 2.8M84.2 25.3c-.3.1-.9.2-1.1.2-.9 0-1.1-.3-1.1-1.2v-5h2.2v-2.1H82v-2.9h-2.5l-.5 2.9h-1.8c-1.4 0-2.5.9-3.2 2.2l-.9-2.2h-1.8v10.3h3V23c0-2.3 1.3-3.7 2.9-3.7H79v5.1c0 2.4 1.2 3.3 3.3 3.3 1 0 1.8-.2 2.3-.4l-.4-2zM99 20.6v7h-3V17.3h1.8l.6 1.6M98.4 18.9c.9-1 2.1-1.8 3.6-1.8 2.5 0 3.5 2 3.5 3.8v6.8h-3V21c0-.9-.7-1.4-1.5-1.4s-1.4.5-1.9 1M48.2 13.6h3.3l4.7 8.8v-8.8H59v14h-3.1l-5-9.7v9.7h-2.7z"></path><path class="st6" d="M114.4 8.3v.5h-.8v2.5h-.5V8.8h-.8v-.5zM114.8 11.3v-3h.8l.5 2 .5-2h.8v3h-.5V9l-.6 2.3h-.4l-.6-2.3v2.3zM47.3 40.1L48 39c.6.4 1.4.8 2.5.8 1 0 1.6-.5 1.6-1.3 0-.9-.8-1.2-2.1-1.6-1.2-.4-2.3-1-2.3-2.6 0-1.5 1.2-2.4 2.9-2.4 1.1 0 1.9.2 2.5.6l-.6 1.2c-.5-.3-1.2-.5-2-.5-.9 0-1.5.3-1.5 1.1 0 .9.6 1.1 1.8 1.5 1.2.4 2.6 1 2.6 2.8 0 1.5-1.1 2.6-3.1 2.6-1.3-.1-2.4-.6-3-1.1M56.2 32h5.3v1.3h-3.8v2.4h3v1.2h-3v2.8h4.1v1.2h-5.6zM63.9 36.5c0-2.6 1.2-4.6 3.7-4.6 1.1 0 2 .4 2.6 1.1l-.9 1c-.5-.5-1-.8-1.7-.8-1.5 0-2.1 1.2-2.1 3.4 0 2.1.7 3.1 2.1 3.1.8 0 1.4-.4 1.8-.9l.9 1c-.6.8-1.5 1.3-2.8 1.3-2.4 0-3.6-2-3.6-4.6M72.9 37.5V32h1.5v5.8c0 1.2.3 2 1.6 2s1.6-.8 1.6-2V32h1.5v5.5c0 2.2-.9 3.5-3.1 3.5-2.3.1-3.1-1.3-3.1-3.5M88.5 40.9h-1.6l-1.7-3.8h-1.4v3.8h-1.5V32h2.9c1.8 0 3.2.6 3.2 2.6 0 1.3-.8 2-1.7 2.3l1.8 4zM85 36c1.1 0 1.7-.4 1.7-1.4 0-1-.6-1.3-1.6-1.3h-1.4V36H85zM91 32h5.3v1.3h-3.8v2.4h3v1.2h-3v2.8h4.1v1.2H91zM99.1 32h2.2c2.9 0 4.3 1.6 4.3 4.4 0 2.9-1.4 4.5-4.2 4.5h-2.3V32zm2.2 7.7c2.1 0 2.8-1 2.8-3.3 0-2-.6-3.2-2.6-3.2h-.8v6.5h.6z"></path><path class="st8" d="M22.7 49.7C10.8 49.7 1.2 40 1.2 28.2S10.8 6.7 22.7 6.7c11.8 0 21.5 9.6 21.5 21.5-.1 11.8-9.7 21.5-21.5 21.5m0-36.2c-3.9 0-7.6 1.5-10.4 4.3A14.6 14.6 0 008 28.2c0 3.9 1.5 7.6 4.3 10.4 2.8 2.8 6.5 4.3 10.4 4.3 3.9 0 7.6-1.5 10.4-4.3 2.8-2.8 4.3-6.5 4.3-10.4 0-3.9-1.5-7.6-4.3-10.4-2.8-2.7-6.5-4.3-10.4-4.3M46 3.4h1.7v1.7H46zM46 .1h1.7v1.7H46zM41.3 5.1h1.6v1.6h-1.6z"></path><path class="st7" d="M38.2 8.3h1.6v1.6h-1.6zM42.9 6.7h1.8v1.6h-1.8zM36.7 6.8h1.6v1.5h-1.6zM41.3 8.3h1.6v1.6h-1.6zM44.4 1.8h1.7v1.7h-1.7zM41.3 3.4h3.1v1.7h-3.1zM39.8 5.1h1.5v3.2h-1.5zM39.8 9.9v1.6h-1.6V9.9h-2.6V11h-1.4v1.4h1.6V14h-1.6v-1.6h-1.7v2.4H31v1.6h-1V18h-1.1c-1.3 1.9-4.5 7.9-5.5 10.3-3.5-4.9-6.3-6.8-8.4-7.5-1.2-.3-2.6.9-.6 2.9 4.4 4.9 5.8 8.9 7.2 12.1.7 1.7 3.9 2 4.5.2 1.4-3.7 3.3-7.8 5.7-11.1v-1.7H33v-1.6h1.3v-1.8h1.6V18h-1.6v-1.6h1.6V18h1.6v-1.6h1.2v-1.9H40v-1.3h1.3V9.9h-1.5z"></path></g></g></svg> 