<?xml version="1.0" encoding="UTF-8"?> <svg xmlns="http://www.w3.org/2000/svg" width="57" height="57" viewBox="0 0 57 57" fill="none"><mask id="path-1-outside-1" maskUnits="userSpaceOnUse" x="5.06647" y="3.05225" width="50" height="50" fill="black"><rect fill="white" x="5.06647" y="3.05225" width="50" height="50"></rect><path fill-rule="evenodd" clip-rule="evenodd" d="M30.0665 49.0522C41.6644 49.0522 51.0665 39.6502 51.0665 28.0522C51.0665 16.4543 41.6644 7.05225 30.0665 7.05225C18.4685 7.05225 9.06647 16.4543 9.06647 28.0522C9.06647 39.6502 18.4685 49.0522 30.0665 49.0522ZM26.7226 14.7382C26.4381 14.3047 25.9112 14.102 25.428 14.2726C24.8776 14.4671 24.3393 14.6957 23.8163 14.9573C23.3572 15.1868 23.1268 15.7112 23.2279 16.2226L23.588 18.0449C23.6807 18.5139 23.4893 18.9899 23.1259 19.2923C22.5517 19.7702 22.0215 20.3105 21.5465 20.9086C21.2513 21.2803 20.7854 21.4773 20.3255 21.3844L18.5392 21.0235C18.0374 20.9222 17.5241 21.1594 17.3009 21.629C17.1748 21.8944 17.0558 22.1653 16.9442 22.4416C16.8326 22.7179 16.73 22.9957 16.6362 23.2746C16.4703 23.7684 16.6707 24.3058 17.0968 24.5946L18.6135 25.6229C19.0041 25.8877 19.1986 26.3624 19.1514 26.8384C19.0755 27.6043 19.0786 28.3689 19.1561 29.1209C19.2051 29.5967 19.0122 30.0721 18.6226 30.3383L17.1088 31.3725C16.6839 31.6627 16.4852 32.2004 16.6525 32.6934C16.8431 33.255 17.0672 33.8043 17.3234 34.338C17.5484 34.8065 18.0623 35.0416 18.5635 34.9384L20.3493 34.571C20.8089 34.4764 21.2755 34.6717 21.5718 35.0425C22.0401 35.6285 22.5697 36.1694 23.1557 36.6541C23.52 36.9554 23.7131 37.4307 23.622 37.9001L23.2684 39.7229C23.169 40.2349 23.4015 40.7587 23.8618 40.9864C24.1218 41.1151 24.3873 41.2365 24.6581 41.3504C24.9289 41.4643 25.2011 41.569 25.4745 41.6646C26.2743 41.9445 27.3936 40.9426 28.2212 40.2018C28.6293 39.8366 28.881 39.3196 28.8837 38.7661C28.8837 38.7632 28.8837 38.7602 28.8837 38.7572L28.8837 35.7092C28.8837 35.6769 28.8849 35.6448 28.8874 35.6131C26.443 35.0168 24.6257 32.773 24.6257 30.096V26.8594C24.6257 26.6134 24.8212 26.4139 25.0623 26.4139H26.5763V23.2294C26.5763 22.7897 26.9256 22.4333 27.3565 22.4333C27.7873 22.4333 28.1367 22.7897 28.1367 23.2294V26.4139H32.2328V23.2294C32.2328 22.7897 32.5821 22.4333 33.013 22.4333C33.4439 22.4333 33.7932 22.7897 33.7932 23.2294V26.4139H35.3071C35.5482 26.4139 35.7437 26.6134 35.7437 26.8594V30.096C35.7437 32.8576 33.8097 35.1583 31.2484 35.6647C31.2489 35.6795 31.2492 35.6943 31.2492 35.7092L31.2492 38.7441C31.2492 39.3083 31.5085 39.8347 31.9288 40.2013C32.7711 40.9359 33.9098 41.9289 34.7049 41.648C35.2553 41.4536 35.7936 41.2249 36.3166 40.9634C36.7757 40.7338 37.006 40.2094 36.905 39.698L36.5449 37.8758C36.4522 37.4067 36.6436 36.9307 37.007 36.6283C37.5812 36.1504 38.1114 35.6101 38.5863 35.0121C38.8816 34.6404 39.3474 34.4433 39.8074 34.5363L41.5937 34.8971C42.0955 34.9985 42.6088 34.7613 42.832 34.2916C42.9581 34.0263 43.0771 33.7554 43.1887 33.4791C43.3003 33.2028 43.4029 32.925 43.4967 32.646C43.6626 32.1523 43.4622 31.6149 43.0361 31.3261L41.5193 30.2978C41.1288 30.033 40.9343 29.5583 40.9815 29.0822C41.0574 28.3163 41.0543 27.5518 40.9768 26.7997C40.9278 26.3239 41.1207 25.8485 41.5103 25.5824L43.0241 24.5482C43.449 24.258 43.6476 23.7203 43.4804 23.2272C43.2898 22.6656 43.0657 22.1163 42.8094 21.5826C42.5845 21.1142 42.0706 20.8791 41.5694 20.9822L39.7836 21.3497C39.324 21.4442 38.8574 21.2489 38.5611 20.8782C38.0928 20.2922 37.5632 19.7512 36.9772 19.2665C36.6129 18.9653 36.4198 18.4899 36.5109 18.0206L36.8645 16.1978C36.9639 15.6858 36.7314 15.162 36.2711 14.9343C36.0111 14.8056 35.7456 14.6842 35.4748 14.5703C35.204 14.4564 34.9318 14.3517 34.6584 14.256C34.1746 14.0867 33.6479 14.2912 33.3649 14.726L32.3571 16.2737C32.0977 16.6722 31.6324 16.8707 31.1659 16.8225C30.4153 16.7451 29.666 16.7482 28.9291 16.8273C28.4628 16.8773 27.9969 16.6805 27.736 16.2829L26.7226 14.7382Z"></path></mask><path d="M25.428 14.2726L24.0956 10.5011L24.0956 10.5011L25.428 14.2726ZM26.7226 14.7382L23.3781 16.9325V16.9325L26.7226 14.7382ZM23.8163 14.9573L22.0274 11.3796L22.0274 11.3796L23.8163 14.9573ZM23.2279 16.2226L27.152 15.4472L27.152 15.4472L23.2279 16.2226ZM23.588 18.0449L19.6639 18.8203L19.6639 18.8203L23.588 18.0449ZM23.1259 19.2923L25.6846 22.3669L25.6847 22.3668L23.1259 19.2923ZM21.5465 20.9086L18.4142 18.4208L18.4142 18.4208L21.5465 20.9086ZM20.3255 21.3844L19.5334 25.3052L19.5334 25.3052L20.3255 21.3844ZM18.5392 21.0235L19.3312 17.1027L19.3312 17.1027L18.5392 21.0235ZM17.3009 21.629L13.6881 19.9121L13.688 19.9124L17.3009 21.629ZM16.9442 22.4416L13.2353 20.9435L13.2353 20.9436L16.9442 22.4416ZM16.6362 23.2746L12.8447 22.0001L12.8446 22.0004L16.6362 23.2746ZM17.0968 24.5946L19.3414 21.2838L19.3414 21.2837L17.0968 24.5946ZM18.6135 25.6229L16.3689 28.9337L16.3689 28.9338L18.6135 25.6229ZM19.1514 26.8384L15.1709 26.4439L15.1709 26.4439L19.1514 26.8384ZM19.1561 29.1209L23.135 28.711L23.135 28.7109L19.1561 29.1209ZM18.6226 30.3383L20.8789 33.6412L20.8789 33.6411L18.6226 30.3383ZM17.1088 31.3725L19.3651 34.6753L19.3651 34.6753L17.1088 31.3725ZM16.6525 32.6934L12.8646 33.9786L12.8646 33.9787L16.6525 32.6934ZM17.3234 34.338L13.7176 36.0695L13.7176 36.0695L17.3234 34.338ZM18.5635 34.9384L19.3696 38.8564L19.3696 38.8564L18.5635 34.9384ZM20.3493 34.571L21.1554 38.4889L21.1555 38.4889L20.3493 34.571ZM21.5718 35.0425L18.4472 37.5398L18.4472 37.5399L21.5718 35.0425ZM23.1557 36.6541L25.705 33.5717L25.7049 33.5716L23.1557 36.6541ZM23.622 37.9001L19.6953 37.1382L19.6953 37.1382L23.622 37.9001ZM23.2684 39.7229L19.3416 38.961L19.3416 38.961L23.2684 39.7229ZM23.8618 40.9864L22.0878 44.5715L22.0879 44.5716L23.8618 40.9864ZM24.6581 41.3504L23.1074 45.0376L23.1074 45.0376L24.6581 41.3504ZM25.4745 41.6646L24.1532 45.4401L24.1532 45.4401L25.4745 41.6646ZM28.2212 40.2018L25.5535 37.2213L25.5534 37.2214L28.2212 40.2018ZM28.8837 38.7661L32.8836 38.7854L32.8837 38.7757V38.7661H28.8837ZM28.8837 38.7572H32.8837V38.7572L28.8837 38.7572ZM28.8837 35.7092H24.8837V35.7092L28.8837 35.7092ZM28.8874 35.6131L32.8754 35.9219L33.1378 32.5327L29.8354 31.7271L28.8874 35.6131ZM26.5763 26.4139V30.4139H30.5763V26.4139H26.5763ZM28.1367 26.4139H24.1367V30.4139H28.1367V26.4139ZM32.2328 26.4139V30.4139H36.2328V26.4139H32.2328ZM33.7932 26.4139H29.7932V30.4139H33.7932V26.4139ZM31.2484 35.6647L30.4725 31.7407L27.1279 32.402L27.251 35.8092L31.2484 35.6647ZM31.2492 35.7092H27.2492V35.7092L31.2492 35.7092ZM31.2492 38.7441H35.2492V38.7441L31.2492 38.7441ZM31.9288 40.2013L29.2997 43.2159H29.2997L31.9288 40.2013ZM34.7049 41.648L33.3725 37.8765L33.3724 37.8765L34.7049 41.648ZM36.3166 40.9634L38.1055 44.5411L38.1055 44.5411L36.3166 40.9634ZM36.905 39.698L32.9809 40.4734L32.9809 40.4735L36.905 39.698ZM36.5449 37.8758L40.469 37.1004L40.469 37.1003L36.5449 37.8758ZM37.007 36.6283L39.5656 39.703L39.5657 39.7029L37.007 36.6283ZM38.5863 35.0121L41.7186 37.4999L41.7186 37.4998L38.5863 35.0121ZM39.8074 34.5363L39.0153 38.457L39.0153 38.4571L39.8074 34.5363ZM41.5937 34.8971L42.3858 30.9763L42.3858 30.9763L41.5937 34.8971ZM42.832 34.2916L39.2192 32.5748L39.2191 32.5749L42.832 34.2916ZM43.1887 33.4791L39.4798 31.981L39.4798 31.981L43.1887 33.4791ZM43.4967 32.646L39.7051 31.3717L39.7051 31.3717L43.4967 32.646ZM43.0361 31.3261L45.2808 28.0152L45.2807 28.0152L43.0361 31.3261ZM41.5193 30.2978L39.2747 33.6086L39.2748 33.6086L41.5193 30.2978ZM40.9815 29.0822L37.001 28.6877L37.001 28.6878L40.9815 29.0822ZM40.9768 26.7997L36.9979 27.2097L36.9979 27.2097L40.9768 26.7997ZM41.5103 25.5824L39.254 22.2795L39.2539 22.2795L41.5103 25.5824ZM43.0241 24.5482L45.2805 27.8511L45.2805 27.851L43.0241 24.5482ZM43.4804 23.2272L39.6924 24.5124L39.6925 24.5124L43.4804 23.2272ZM42.8094 21.5826L39.2036 23.3142L39.2037 23.3143L42.8094 21.5826ZM41.5694 20.9822L40.7633 17.0643L40.7633 17.0643L41.5694 20.9822ZM39.7836 21.3497L40.5897 25.2676L40.5897 25.2676L39.7836 21.3497ZM38.5611 20.8782L41.6857 18.3808L41.6857 18.3808L38.5611 20.8782ZM36.9772 19.2665L39.5264 16.1841L39.5263 16.184L36.9772 19.2665ZM36.5109 18.0206L40.4376 18.7825L40.4376 18.7824L36.5109 18.0206ZM36.8645 16.1978L32.9377 15.4358L32.9377 15.436L36.8645 16.1978ZM36.2711 14.9343L38.045 11.3491L38.045 11.3491L36.2711 14.9343ZM34.6584 14.256L33.3371 18.0315L33.3372 18.0315L34.6584 14.256ZM33.3649 14.726L36.7169 16.9086L36.717 16.9085L33.3649 14.726ZM32.3571 16.2737L29.0051 14.0911L29.005 14.0912L32.3571 16.2737ZM31.1659 16.8225L30.7553 20.8014L30.7553 20.8014L31.1659 16.8225ZM28.9291 16.8273L28.5024 12.8501L28.5024 12.8501L28.9291 16.8273ZM27.736 16.2829L24.3916 18.4771L24.3916 18.4772L27.736 16.2829ZM47.0665 28.0522C47.0665 37.4411 39.4553 45.0522 30.0665 45.0522V53.0522C43.8736 53.0522 55.0665 41.8594 55.0665 28.0522H47.0665ZM30.0665 11.0522C39.4553 11.0522 47.0665 18.6634 47.0665 28.0522H55.0665C55.0665 14.2451 43.8736 3.05225 30.0665 3.05225V11.0522ZM13.0665 28.0522C13.0665 18.6634 20.6776 11.0522 30.0665 11.0522V3.05225C16.2594 3.05225 5.06647 14.2451 5.06647 28.0522H13.0665ZM30.0665 45.0522C20.6776 45.0522 13.0665 37.4411 13.0665 28.0522H5.06647C5.06647 41.8594 16.2594 53.0522 30.0665 53.0522V45.0522ZM26.7604 18.0442C25.3419 18.5453 24.0042 17.8867 23.3781 16.9325L30.067 12.5439C28.8721 10.7226 26.4805 9.65859 24.0956 10.5011L26.7604 18.0442ZM25.6052 18.5349C25.9805 18.3473 26.3663 18.1834 26.7604 18.0442L24.0956 10.5011C23.3889 10.7507 22.6982 11.0442 22.0274 11.3796L25.6052 18.5349ZM27.152 15.4472C27.3643 16.5213 26.9153 17.8798 25.6052 18.5349L22.0274 11.3796C19.7991 12.4938 18.8894 14.9011 19.3038 16.9981L27.152 15.4472ZM27.5121 17.2694L27.152 15.4472L19.3038 16.9981L19.6639 18.8203L27.5121 17.2694ZM25.6847 22.3668C27.0687 21.215 27.9142 19.304 27.5121 17.2694L19.6639 18.8203C19.4472 17.7238 19.9099 16.7648 20.5672 16.2177L25.6847 22.3668ZM24.6788 23.3963C24.9819 23.0147 25.3195 22.6707 25.6846 22.3669L20.5672 16.2177C19.7838 16.8697 19.0611 17.6063 18.4142 18.4208L24.6788 23.3963ZM19.5334 25.3052C21.6428 25.7313 23.5657 24.7977 24.6788 23.3963L18.4142 18.4208C18.9368 17.7629 19.9281 17.2233 21.1175 17.4636L19.5334 25.3052ZM17.7471 24.9443L19.5334 25.3052L21.1175 17.4636L19.3312 17.1027L17.7471 24.9443ZM20.9137 23.3459C20.304 24.6288 18.9416 25.1856 17.7471 24.9443L19.3312 17.1027C17.1332 16.6587 14.7441 17.6899 13.6881 19.9121L20.9137 23.3459ZM20.6531 23.9397C20.7348 23.7372 20.8218 23.5392 20.9138 23.3457L13.688 19.9124C13.5278 20.2496 13.3767 20.5934 13.2353 20.9435L20.6531 23.9397ZM20.4277 24.5492C20.4962 24.3453 20.5713 24.1421 20.6531 23.9396L13.2353 20.9436C13.0939 21.2937 12.9637 21.6461 12.8447 22.0001L20.4277 24.5492ZM19.3414 21.2837C20.3093 21.94 20.8688 23.2366 20.4278 24.5489L12.8446 22.0004C12.0717 24.3002 13.0321 26.6716 14.8522 27.9055L19.3414 21.2837ZM20.8581 22.312L19.3414 21.2838L14.8522 27.9055L16.3689 28.9337L20.8581 22.312ZM23.1319 27.233C23.3054 25.482 22.6096 23.4994 20.8581 22.312L16.3689 28.9338C15.3986 28.2759 15.0917 27.2428 15.1709 26.4439L23.1319 27.233ZM23.135 28.7109C23.0847 28.2231 23.0828 27.7281 23.1319 27.2329L15.1709 26.4439C15.0681 27.4806 15.0724 28.5147 15.1771 29.5309L23.135 28.7109ZM20.8789 33.6411C22.6256 32.4479 23.3155 30.463 23.135 28.711L15.1771 29.5308C15.0947 28.7305 15.3988 27.6964 16.3662 27.0355L20.8789 33.6411ZM19.3651 34.6753L20.8789 33.6412L16.3662 27.0354L14.8524 28.0696L19.3651 34.6753ZM20.4404 31.4082C20.8851 32.719 20.3296 34.0164 19.3651 34.6753L14.8524 28.0696C13.0381 29.309 12.0853 31.6818 12.8646 33.9786L20.4404 31.4082ZM20.9292 32.6065C20.7427 32.2181 20.5794 31.8178 20.4404 31.4082L12.8646 33.9787C13.1067 34.6923 13.3916 35.3906 13.7176 36.0695L20.9292 32.6065ZM17.7574 31.0205C18.9501 30.7751 20.3144 31.3261 20.9292 32.6065L13.7176 36.0695C14.7824 38.287 17.1746 39.308 19.3696 38.8564L17.7574 31.0205ZM19.5432 30.6531L17.7574 31.0205L19.3696 38.8564L21.1554 38.4889L19.5432 30.6531ZM24.6964 32.5452C23.5778 31.1456 21.6506 30.2195 19.5431 30.6531L21.1555 38.4889C19.9673 38.7334 18.9731 38.1978 18.4472 37.5398L24.6964 32.5452ZM25.7049 33.5716C25.3336 33.2645 24.9962 32.9203 24.6964 32.5451L18.4472 37.5399C19.084 38.3366 19.8057 39.0743 20.6066 39.7366L25.7049 33.5716ZM27.5488 38.662C27.9439 36.6256 27.0913 34.7182 25.705 33.5717L20.6065 39.7365C19.9487 39.1925 19.4823 38.2359 19.6953 37.1382L27.5488 38.662ZM27.1952 40.4847L27.5488 38.6619L19.6953 37.1382L19.3416 38.961L27.1952 40.4847ZM25.6357 37.4013C26.9495 38.0513 27.4038 39.4092 27.1952 40.4847L19.3416 38.961C18.9343 41.0605 19.8535 43.466 22.0878 44.5715L25.6357 37.4013ZM26.2088 37.6632C26.0136 37.5811 25.8225 37.4937 25.6356 37.4012L22.0879 44.5716C22.4211 44.7364 22.761 44.8919 23.1074 45.0376L26.2088 37.6632ZM26.7958 37.8892C26.5997 37.8206 26.404 37.7453 26.2087 37.6632L23.1074 45.0376C23.4537 45.1832 23.8025 45.3174 24.1532 45.4401L26.7958 37.8892ZM25.5534 37.2214C25.3384 37.4139 25.169 37.5649 25.0033 37.7022C24.8366 37.8403 24.7353 37.9124 24.6871 37.9431C24.6209 37.9853 24.7432 37.8934 25.0206 37.8137C25.3125 37.7299 25.9822 37.6045 26.7957 37.8892L24.1532 45.4401C26.4705 46.2511 28.4258 45.0471 28.9877 44.6889C29.7967 44.1731 30.5307 43.5029 30.889 43.1823L25.5534 37.2214ZM24.8837 38.7469C24.8869 38.0827 25.1856 37.5506 25.5535 37.2213L30.8889 43.1823C32.0729 42.1225 32.8751 40.5566 32.8836 38.7854L24.8837 38.7469ZM24.8837 38.7572C24.8837 38.7533 24.8837 38.7502 24.8837 38.7487C24.8837 38.7473 24.8837 38.7462 24.8837 38.7473C24.8837 38.7477 24.8837 38.7502 24.8837 38.7531C24.8837 38.7561 24.8837 38.7607 24.8837 38.7661H32.8837C32.8837 38.7701 32.8837 38.7732 32.8837 38.7747C32.8837 38.7761 32.8837 38.7771 32.8837 38.7761C32.8837 38.7757 32.8837 38.7731 32.8837 38.7703C32.8837 38.7672 32.8837 38.7627 32.8837 38.7572H24.8837ZM24.8993 35.3044C24.8888 35.4398 24.8837 35.5748 24.8837 35.7092H32.8837C32.8837 35.7789 32.881 35.8499 32.8754 35.9219L24.8993 35.3044ZM20.6257 30.096C20.6257 34.6081 23.695 38.4638 27.9394 39.4992L29.8354 31.7271C29.191 31.5699 28.6257 30.9379 28.6257 30.096H20.6257ZM20.6257 26.8594V30.096H28.6257V26.8594H20.6257ZM25.0623 22.4139C22.5362 22.4139 20.6257 24.4808 20.6257 26.8594H28.6257C28.6257 28.7459 27.1061 30.4139 25.0623 30.4139V22.4139ZM26.5763 22.4139H25.0623V30.4139H26.5763V22.4139ZM22.5763 23.2294V26.4139H30.5763V23.2294H22.5763ZM27.3565 18.4333C24.6406 18.4333 22.5763 20.6572 22.5763 23.2294H30.5763C30.5763 24.9223 29.2105 26.4333 27.3565 26.4333V18.4333ZM32.1367 23.2294C32.1367 20.6572 30.0723 18.4333 27.3565 18.4333V26.4333C25.5024 26.4333 24.1367 24.9223 24.1367 23.2294H32.1367ZM32.1367 26.4139V23.2294H24.1367V26.4139H32.1367ZM32.2328 22.4139H28.1367V30.4139H32.2328V22.4139ZM28.2328 23.2294V26.4139H36.2328V23.2294H28.2328ZM33.013 18.4333C30.297 18.4333 28.2328 20.6573 28.2328 23.2294H36.2328C36.2328 24.9222 34.8671 26.4333 33.013 26.4333V18.4333ZM37.7932 23.2294C37.7932 20.6572 35.7288 18.4333 33.013 18.4333V26.4333C31.1589 26.4333 29.7932 24.9223 29.7932 23.2294H37.7932ZM37.7932 26.4139V23.2294H29.7932V26.4139H37.7932ZM35.3071 22.4139H33.7932V30.4139H35.3071V22.4139ZM39.7437 26.8594C39.7437 24.481 37.8333 22.4139 35.3071 22.4139V30.4139C33.2632 30.4139 31.7437 28.7458 31.7437 26.8594H39.7437ZM39.7437 30.096V26.8594H31.7437V30.096H39.7437ZM32.0243 39.5888C36.4781 38.7081 39.7437 34.7485 39.7437 30.096H31.7437C31.7437 30.9668 31.1414 31.6084 30.4725 31.7407L32.0243 39.5888ZM35.2492 35.7092C35.2492 35.6485 35.2482 35.5854 35.2458 35.5203L27.251 35.8092C27.2497 35.7735 27.2492 35.7401 27.2492 35.7092H35.2492ZM34.5579 37.1867C34.94 37.5199 35.2492 38.0646 35.2492 38.7441H27.2492C27.2492 40.5521 28.077 42.1495 29.2997 43.2159L34.5579 37.1867ZM33.3724 37.8765C34.1874 37.5886 34.8554 37.714 35.1357 37.7928C35.4052 37.8684 35.5216 37.9553 35.4502 37.9108C35.397 37.8776 35.2911 37.8037 35.1201 37.6655C34.9502 37.5282 34.7765 37.3773 34.5579 37.1867L29.2997 43.2159C29.6656 43.535 30.4071 44.1942 31.2189 44.7001C31.7742 45.0462 33.734 46.2333 36.0373 45.4196L33.3724 37.8765ZM34.5277 37.3857C34.1524 37.5734 33.7666 37.7372 33.3725 37.8765L36.0372 45.4196C36.7439 45.1699 37.4347 44.8765 38.1055 44.5411L34.5277 37.3857ZM32.9809 40.4735C32.7686 39.3993 33.2176 38.0408 34.5277 37.3857L38.1055 44.5411C40.3338 43.4269 41.2435 41.0196 40.8291 38.9225L32.9809 40.4735ZM32.6208 38.6511L32.9809 40.4734L40.8291 38.9226L40.469 37.1004L32.6208 38.6511ZM34.4483 33.5537C33.0641 34.7056 32.2187 36.6168 32.6208 38.6513L40.469 37.1003C40.6857 38.1967 40.2231 39.1558 39.5656 39.703L34.4483 33.5537ZM35.4541 32.5243C35.151 32.9059 34.8134 33.2499 34.4483 33.5538L39.5657 39.7029C40.3491 39.0509 41.0717 38.3143 41.7186 37.4999L35.4541 32.5243ZM40.5995 30.6155C38.4901 30.1893 36.5671 31.1229 35.4541 32.5243L41.7186 37.4998C41.196 38.1578 40.2047 38.6973 39.0153 38.457L40.5995 30.6155ZM42.3858 30.9763L40.5994 30.6155L39.0153 38.4571L40.8016 38.8179L42.3858 30.9763ZM39.2191 32.5749C39.8288 31.2919 41.1913 30.735 42.3858 30.9763L40.8016 38.8179C42.9997 39.262 45.3888 38.2307 46.4448 36.0084L39.2191 32.5749ZM39.4798 31.981C39.398 32.1836 39.311 32.3815 39.2192 32.5748L46.4448 36.0085C46.6052 35.671 46.7562 35.3272 46.8976 34.9771L39.4798 31.981ZM39.7051 31.3717C39.6367 31.5752 39.5616 31.7784 39.4798 31.981L46.8976 34.9771C47.0389 34.6271 47.1691 34.2747 47.2882 33.9204L39.7051 31.3717ZM40.7915 34.6369C39.8236 33.9807 39.264 32.6841 39.7051 31.3717L47.2882 33.9204C48.0612 31.6205 47.1007 29.2491 45.2808 28.0152L40.7915 34.6369ZM39.2748 33.6086L40.7915 34.6369L45.2807 28.0152L43.7639 26.9869L39.2748 33.6086ZM37.001 28.6878C36.8275 30.4387 37.5233 32.4211 39.2747 33.6086L43.764 26.987C44.7343 27.6448 45.0411 28.6778 44.962 29.4766L37.001 28.6878ZM36.9979 27.2097C37.0481 27.6975 37.05 28.1925 37.001 28.6877L44.962 29.4767C45.0647 28.4402 45.0605 27.4061 44.9557 26.3898L36.9979 27.2097ZM39.2539 22.2795C37.5073 23.4728 36.8174 25.4576 36.9979 27.2097L44.9558 26.3898C45.0382 27.1902 44.7341 28.2243 43.7667 28.8852L39.2539 22.2795ZM40.7678 21.2453L39.254 22.2795L43.7667 28.8852L45.2805 27.8511L40.7678 21.2453ZM39.6925 24.5124C39.2477 23.2017 39.8032 21.9043 40.7677 21.2454L45.2805 27.851C47.0948 26.6116 48.0476 24.2388 47.2683 21.942L39.6925 24.5124ZM39.2037 23.3143C39.3902 23.7027 39.5535 24.1029 39.6924 24.5124L47.2683 21.9421C47.0262 21.2284 46.7413 20.53 46.4152 19.851L39.2037 23.3143ZM42.3755 24.9002C41.1828 25.1456 39.8185 24.5946 39.2036 23.3142L46.4153 19.8511C45.3505 17.6337 42.9584 16.6127 40.7633 17.0643L42.3755 24.9002ZM40.5897 25.2676L42.3755 24.9002L40.7633 17.0643L38.9775 17.4317L40.5897 25.2676ZM35.4365 23.3755C36.5551 24.7751 38.4823 25.7012 40.5897 25.2676L38.9775 17.4317C40.1656 17.1873 41.1598 17.7228 41.6857 18.3808L35.4365 23.3755ZM34.4279 22.349C34.7993 22.6561 35.1366 23.0003 35.4365 23.3755L41.6857 18.3808C41.0489 17.584 40.3272 16.8464 39.5264 16.1841L34.4279 22.349ZM32.5841 17.2587C32.189 19.2949 33.0415 21.2024 34.428 22.349L39.5263 16.184C40.1843 16.7281 40.6506 17.6849 40.4376 18.7825L32.5841 17.2587ZM32.9377 15.436L32.5841 17.2587L40.4376 18.7824L40.7913 16.9596L32.9377 15.436ZM34.4973 18.5194C33.1834 17.8694 32.729 16.5114 32.9377 15.4358L40.7912 16.9598C41.1987 14.8602 40.2794 12.4546 38.045 11.3491L34.4973 18.5194ZM33.9241 18.2575C34.1193 18.3396 34.3104 18.427 34.4973 18.5194L38.045 11.3491C37.7117 11.1842 37.3718 11.0288 37.0255 10.8831L33.9241 18.2575ZM33.3372 18.0315C33.5331 18.1001 33.7289 18.1753 33.9241 18.2575L37.0255 10.8831C36.6792 10.7375 36.3305 10.6033 35.9797 10.4805L33.3372 18.0315ZM36.717 16.9085C36.0941 17.8652 34.7579 18.5287 33.3371 18.0315L35.9797 10.4806C33.5912 9.64466 31.2018 10.7172 30.0128 12.5435L36.717 16.9085ZM35.7092 18.4562L36.7169 16.9086L30.0128 12.5434L29.0051 14.0911L35.7092 18.4562ZM30.7553 20.8014C32.577 20.9894 34.5591 20.2227 35.7093 18.4562L29.005 14.0912C29.6362 13.1217 30.6879 12.7519 31.5765 12.8436L30.7553 20.8014ZM29.3557 20.8044C29.8178 20.7549 30.2864 20.753 30.7553 20.8014L31.5765 12.8436C30.5442 12.7371 29.5143 12.7415 28.5024 12.8501L29.3557 20.8044ZM24.3916 18.4772C25.5478 20.2393 27.533 21 29.3557 20.8044L28.5024 12.8501C29.3925 12.7546 30.446 13.1216 31.0804 14.0886L24.3916 18.4772ZM23.3781 16.9325L24.3916 18.4771L31.0805 14.0886L30.067 12.5439L23.3781 16.9325ZM24.8837 35.7092L24.8837 38.7573L32.8837 38.7572L32.8837 35.7091L24.8837 35.7092ZM35.2492 38.7441L35.2492 35.7091L27.2492 35.7092L27.2492 38.7442L35.2492 38.7441Z" fill="#005AE0" mask="url(#path-1-outside-1)"></path></svg> 