<?xml version="1.0" encoding="UTF-8"?> <svg xmlns="http://www.w3.org/2000/svg" width="56" height="57" viewBox="0 0 56 57" fill="none"><path d="M35 7.05249H11.6667C9.1 7.05249 7.02333 9.15249 7.02333 11.7192L7 44.3858C7 46.9525 9.07667 49.0525 11.6433 49.0525H44.3333C46.9 49.0525 49 46.9525 49 44.3858V21.0525L35 7.05249ZM11.6667 44.3858V11.7192H32.6667V23.3858H44.3333V44.3858H11.6667ZM21 18.7192C21 20.0025 19.95 21.0525 18.6667 21.0525C17.3833 21.0525 16.3333 20.0025 16.3333 18.7192C16.3333 17.4358 17.3833 16.3858 18.6667 16.3858C19.95 16.3858 21 17.4358 21 18.7192ZM21 28.0525C21 29.3358 19.95 30.3858 18.6667 30.3858C17.3833 30.3858 16.3333 29.3358 16.3333 28.0525C16.3333 26.7692 17.3833 25.7192 18.6667 25.7192C19.95 25.7192 21 26.7692 21 28.0525ZM21 37.3858C21 38.6692 19.95 39.7192 18.6667 39.7192C17.3833 39.7192 16.3333 38.6692 16.3333 37.3858C16.3333 36.1025 17.3833 35.0525 18.6667 35.0525C19.95 35.0525 21 36.1025 21 37.3858Z" fill="#005AE0"></path></svg> 